<?xml version="1.0" standalone="no"?>
<!DOCTYPE svg PUBLIC "-//W3C//DTD SVG 20010904//EN"
 "http://www.w3.org/TR/2001/REC-SVG-20010904/DTD/svg10.dtd">
<svg version="1.0" xmlns="http://www.w3.org/2000/svg"
 width="1277.000000pt" height="336.000000pt" viewBox="0 0 1277.000000 336.000000"
 preserveAspectRatio="xMidYMid meet">

<g transform="translate(0.000000,336.000000) scale(0.100000,-0.100000)"
fill="#000000" stroke="none">
<path d="M661 2886 c-9 -11 -10 -24 -2 -53 6 -21 11 -54 11 -73 0 -20 7 -45
15 -58 12 -16 13 -27 6 -40 -6 -11 -8 -34 -5 -53 5 -27 0 -42 -25 -76 -29 -40
-32 -42 -61 -31 -29 10 -33 8 -69 -31 -21 -22 -45 -41 -54 -41 -19 0 -37 -30
-37 -62 0 -28 -17 -48 -40 -48 -9 0 -27 -11 -40 -25 -20 -21 -22 -28 -12 -50
7 -14 12 -41 12 -60 0 -29 5 -37 33 -51 17 -8 42 -27 54 -42 19 -23 25 -24 48
-14 38 17 64 15 123 -13 42 -19 52 -29 52 -49 0 -45 -10 -56 -49 -56 -39 0
-130 28 -154 48 -16 13 -50 6 -41 -9 3 -5 16 -9 30 -9 13 0 24 -3 24 -8 0 -4
10 -12 23 -17 12 -6 23 -20 25 -31 2 -17 -7 -25 -52 -44 -50 -20 -54 -24 -43
-42 10 -16 8 -22 -13 -38 -86 -65 -81 -59 -74 -105 5 -39 3 -45 -25 -71 -43
-38 -41 -95 3 -78 9 3 16 12 16 19 0 23 21 28 38 11 16 -16 16 -19 -1 -47 -22
-40 -13 -53 32 -45 45 7 98 -22 107 -59 3 -14 1 -52 -4 -85 -11 -63 -9 -84 14
-111 12 -13 9 -28 -15 -97 -16 -45 -39 -94 -50 -109 -16 -19 -20 -34 -15 -56
3 -15 0 -42 -7 -59 -12 -29 -11 -32 16 -53 22 -18 29 -33 33 -73 l4 -51 -38
-6 c-59 -10 -84 -26 -105 -68 -20 -38 -20 -38 1 -66 11 -16 20 -35 20 -43 1
-38 60 -72 85 -49 6 5 33 16 61 25 61 20 75 33 104 106 33 78 52 97 85 82 14
-7 60 -12 101 -12 87 0 131 18 182 74 18 20 38 36 44 36 27 0 95 45 115 76
l22 34 -25 0 c-32 0 -41 25 -19 50 36 39 94 11 109 -52 4 -16 18 -34 35 -43
48 -25 53 -75 8 -75 -22 -1 -57 -21 -57 -34 0 -12 28 -6 40 9 9 11 29 14 76
12 54 -2 67 -6 94 -32 16 -16 30 -37 30 -46 0 -10 3 -24 6 -33 5 -14 9 -13 34
4 33 24 53 25 70 5 26 -31 121 -67 184 -68 l61 -2 3 36 c2 27 -3 41 -24 62
-21 21 -25 30 -16 39 7 7 12 27 12 44 0 26 8 40 40 66 23 18 49 49 59 68 11
19 34 58 53 87 l34 51 24 -19 c14 -10 34 -19 45 -19 32 0 44 -19 38 -56 -3
-19 -1 -34 4 -34 16 0 40 32 47 62 5 24 12 28 41 28 56 0 85 -16 86 -47 1 -26
2 -26 13 9 6 20 14 39 18 43 11 11 100 -69 128 -115 21 -34 30 -40 59 -40 28
0 43 9 87 55 30 30 58 55 64 55 22 0 159 -82 165 -98 11 -36 51 -73 87 -81 35
-8 37 -7 28 10 -6 10 -35 39 -65 65 -67 58 -72 87 -20 104 20 7 42 9 51 6 8
-3 19 3 26 14 24 38 162 18 238 -35 38 -26 41 -27 58 -11 19 17 44 21 56 9 4
-4 32 -15 64 -25 l56 -17 32 34 c34 37 52 42 103 24 25 -9 36 -8 56 5 18 12
30 13 50 6 15 -6 37 -10 49 -10 32 0 108 35 131 60 10 11 24 20 31 20 29 0 64
-24 73 -51 6 -18 19 -31 36 -35 19 -5 24 -11 19 -23 -20 -51 -15 -96 19 -151
37 -62 56 -71 86 -41 25 25 28 105 6 135 -20 26 -19 72 1 80 9 3 43 1 75 -6
64 -13 65 -12 71 17 2 17 -2 19 -25 17 -26 -3 -28 -1 -25 30 2 25 8 33 23 33
11 0 24 -10 30 -22 l11 -22 27 30 c22 25 30 28 46 20 25 -14 35 -44 32 -104
-2 -42 0 -48 16 -45 13 2 19 14 21 41 3 29 7 37 23 37 24 0 24 -12 -1 -78 -11
-29 -20 -65 -20 -80 1 -37 51 -126 73 -130 30 -6 120 38 147 71 20 25 26 46
30 102 5 67 6 70 30 68 30 -2 121 23 145 41 15 11 32 9 104 -11 47 -13 96 -29
108 -35 20 -10 88 -6 136 8 15 5 16 8 6 21 -10 12 -10 16 2 24 8 5 19 9 26 9
14 0 68 -50 75 -71 3 -8 9 -10 14 -6 4 4 3 21 -3 37 -13 33 -1 50 34 50 13 0
32 5 42 12 19 12 24 9 87 -37 9 -6 29 -4 61 8 54 19 89 22 98 7 3 -6 16 -10
28 -10 12 0 35 -9 51 -19 20 -14 39 -18 63 -14 28 5 39 1 63 -22 22 -21 35
-26 57 -22 15 3 35 1 44 -3 9 -5 25 -3 40 5 13 8 35 19 48 25 l24 11 -26 27
c-38 40 -36 75 8 101 48 28 75 76 75 132 0 25 4 49 9 55 5 5 2 23 -5 42 -13
30 -17 32 -49 26 -33 -6 -35 -5 -35 22 1 16 7 40 15 54 22 38 18 50 -15 50
-20 0 -34 8 -45 24 -14 21 -14 27 4 70 19 43 19 47 3 75 l-16 29 68 66 c37 36
72 66 77 66 5 0 21 19 36 43 16 23 35 47 43 54 10 9 11 12 3 13 -18 0 -16 31
3 59 15 21 15 25 -3 49 -22 29 -37 38 -76 47 -17 3 -32 16 -39 33 -7 15 -13
29 -14 31 -2 1 -13 -4 -26 -13 -34 -24 -47 -20 -64 22 -9 20 -26 51 -39 68
-13 16 -25 41 -27 53 -4 31 -74 55 -132 47 -103 -16 -100 -17 -106 41 -7 71
-24 86 -99 88 -33 1 -66 -2 -73 -6 -18 -11 -18 -140 0 -161 23 -29 52 -29 63
-1 8 21 14 24 37 18 64 -15 60 -71 -4 -59 l-34 6 11 -30 c16 -46 -3 -75 -42
-67 -25 6 -29 4 -29 -14 0 -12 -8 -26 -19 -33 -15 -9 -18 -19 -14 -48 6 -42
-7 -56 -37 -40 -21 11 -28 64 -10 75 12 8 13 62 1 69 -5 3 -14 -8 -20 -24 -7
-22 -16 -30 -35 -30 -37 0 -56 10 -56 30 0 31 -19 33 -30 4 l-11 -28 -30 37
c-26 32 -36 36 -82 39 -45 3 -52 6 -55 26 -5 31 -20 28 -24 -5 -2 -22 -9 -29
-31 -31 -25 -3 -28 -7 -23 -28 4 -13 2 -34 -5 -45 -9 -17 -17 -19 -48 -14 -28
5 -50 0 -91 -19 -66 -31 -80 -32 -113 -6 -19 15 -40 20 -86 20 -71 0 -119 17
-167 60 -42 36 -45 36 -81 6 -42 -34 -135 -43 -186 -17 l-39 20 6 -25 c6 -22
4 -24 -32 -24 -42 0 -60 11 -85 52 -10 15 -29 35 -43 44 -23 16 -28 16 -60 1
-46 -22 -71 -21 -84 3 -17 32 -30 14 -30 -40 0 -59 -14 -70 -88 -70 -32 0 -54
-5 -62 -15 -7 -8 -20 -15 -30 -15 -10 0 -23 7 -30 15 -19 23 -50 19 -50 -6 0
-20 -4 -21 -46 -15 -26 3 -61 14 -78 25 -17 10 -48 22 -69 25 -20 4 -43 15
-49 25 -11 18 -12 18 -39 -1 -30 -23 -132 -28 -168 -9 -28 15 -27 54 2 74 17
11 19 18 11 27 -22 23 -49 4 -134 -93 -92 -105 -131 -137 -167 -137 -16 0 -25
8 -29 27 -6 21 -2 31 20 48 53 42 -17 49 -95 9 -28 -14 -57 -23 -65 -20 -19 7
-18 42 1 50 33 12 12 22 -32 15 -85 -14 -93 -12 -99 21 -10 45 -24 52 -83 39
-40 -8 -57 -18 -77 -45 -25 -32 -29 -33 -84 -31 -43 1 -63 -2 -77 -15 -11 -10
-30 -18 -44 -18 -13 -1 -35 -7 -49 -15 -45 -26 -73 -19 -96 23 l-20 38 20 55
c11 30 17 63 13 72 -8 22 -44 21 -88 -2 l-36 -20 -49 25 c-61 31 -67 37 -60
61 18 56 76 78 141 53 20 -8 27 -7 32 6 9 25 -11 38 -43 27 -27 -9 -32 -5 -83
54 -46 54 -58 63 -80 59 -115 -22 -130 -17 -96 28 20 26 11 36 -33 36 -42 1
-109 18 -164 43 -45 21 -48 21 -48 3 0 -8 15 -18 33 -22 l32 -7 -38 -17 c-35
-16 -40 -16 -95 2 -31 11 -66 28 -78 39 -19 18 -22 18 -34 4 -20 -24 -39 -18
-54 18 -17 43 -75 92 -89 78 -16 -16 -44 -13 -130 14 -89 29 -106 30 -131 12
-35 -25 3 -43 105 -50 81 -6 96 -10 119 -32 15 -14 29 -22 33 -19 3 4 18 4 32
0 31 -8 35 -50 6 -66 -26 -13 -64 -13 -79 2 -8 8 -18 9 -34 1 -29 -13 -173 -2
-208 17 -38 20 -60 41 -60 60 0 10 -7 23 -15 30 -20 16 -36 71 -44 145 -6 63
-25 82 -50 51z m444 -347 c0 -8 -10 -15 -22 -17 -25 -4 -33 22 -10 31 18 8 32
2 32 -14z m-189 -117 c33 -4 73 -15 88 -26 29 -18 29 -18 191 -4 44 4 45 -25
1 -55 -39 -26 -107 -124 -124 -178 -40 -123 -45 -151 -34 -170 19 -30 16 -268
-4 -315 -11 -26 -17 -71 -18 -134 -1 -82 -5 -102 -29 -150 -15 -30 -38 -70
-52 -89 -54 -74 -14 -97 58 -33 23 21 54 46 69 55 15 10 42 47 63 89 28 58 38
93 46 168 6 52 10 104 8 115 -2 11 -3 107 -3 214 l2 194 38 74 c51 101 66 118
122 139 26 10 60 28 75 41 31 25 65 37 93 31 15 -2 9 -14 -33 -59 -74 -82 -96
-147 -99 -284 -2 -107 -2 -111 23 -131 l26 -22 -22 -31 c-20 -27 -21 -34 -10
-70 10 -32 9 -44 -1 -56 -8 -10 -11 -31 -6 -63 4 -33 1 -56 -9 -76 -24 -45 -6
-75 39 -67 6 1 22 5 38 8 22 4 28 2 28 -11 0 -9 -8 -19 -17 -22 -10 -3 -46
-16 -81 -30 -34 -13 -71 -24 -82 -24 -21 0 -117 -69 -163 -118 l-28 -29 59
-22 c65 -23 181 -28 262 -10 25 5 64 12 88 16 38 5 42 3 42 -15 0 -11 -15 -32
-32 -46 -18 -15 -39 -31 -46 -37 -6 -5 -12 -19 -12 -30 0 -25 -49 -99 -66 -99
-7 0 -28 6 -46 14 -58 25 -180 47 -321 59 -121 10 -148 9 -218 -6 -45 -9 -85
-14 -90 -11 -5 3 0 17 11 31 11 14 20 31 20 38 0 6 12 22 26 36 39 37 54 73
54 133 0 50 -2 56 -24 62 -12 3 -47 1 -77 -4 -60 -11 -69 -9 -69 18 0 21 46
80 63 80 7 0 33 14 60 30 51 33 57 50 36 122 -7 27 -17 40 -34 44 -13 3 -29
12 -36 20 -9 11 -31 13 -105 8 -106 -8 -110 -4 -71 53 25 37 107 83 148 83 65
0 76 12 84 92 4 46 13 80 24 93 10 11 27 36 39 55 11 19 39 53 61 75 60 58 49
89 -23 65 -37 -12 -86 -2 -188 36 -46 18 -47 18 -100 -4 -94 -39 -113 -24 -54
44 55 64 112 98 175 105 31 4 67 5 81 2 14 -3 52 -8 86 -11z m4836 -288 c4
-32 11 -75 15 -94 l9 -35 102 -5 c109 -5 122 -11 122 -57 0 -35 -30 -43 -152
-43 -127 0 -154 -10 -203 -75 -39 -50 -70 -46 -70 10 0 50 -8 62 -45 70 -47
10 -42 24 61 151 86 105 127 146 141 142 8 -3 16 -30 20 -64z m-3917 -35 c43
-38 95 -114 95 -139 0 -10 -13 -30 -30 -43 -16 -14 -30 -28 -30 -31 0 -3 19
-6 43 -6 59 0 69 -9 65 -61 -3 -37 -8 -46 -33 -59 -16 -8 -34 -21 -38 -27 -4
-7 -18 -14 -30 -15 -12 -1 7 -4 43 -7 58 -5 65 -8 62 -26 -4 -28 -4 -33 8 -99
9 -52 8 -63 -9 -100 -12 -24 -17 -44 -12 -49 12 -12 -11 -89 -42 -135 -13 -21
-26 -44 -29 -53 -6 -16 -120 -99 -137 -99 -16 0 -188 -139 -206 -166 -28 -43
-11 -78 40 -84 37 -5 40 -8 43 -38 3 -27 -1 -34 -22 -42 -35 -13 -116 3 -134
27 -23 31 -10 127 25 169 15 20 37 50 48 67 10 18 27 38 37 45 10 7 27 30 37
50 11 20 37 61 59 90 22 29 43 68 46 86 4 19 13 39 21 46 22 18 19 33 -13 63
-20 19 -45 30 -82 36 -63 10 -86 34 -38 39 18 2 51 -2 74 -8 38 -11 44 -10 62
8 11 11 25 21 32 24 10 3 10 9 -2 29 -17 26 -29 108 -32 205 -1 39 -7 70 -19
88 -35 52 -92 109 -124 123 -18 7 -33 17 -33 22 0 5 17 22 37 37 95 75 159 84
218 33z m2203 -94 c16 -13 37 -46 46 -72 9 -26 24 -62 32 -79 13 -26 14 -36 4
-55 -14 -25 -15 -449 -1 -523 15 -82 -20 -150 -85 -162 -25 -4 -45 1 -83 21
-75 41 -88 59 -72 98 16 40 25 563 10 619 -5 21 -19 44 -32 53 l-21 15 21 15
c11 8 24 26 27 40 14 54 104 72 154 30z m435 -30 c74 -58 85 -62 119 -44 13 7
23 8 30 1 7 -7 -6 -26 -37 -56 -42 -42 -45 -47 -30 -62 13 -14 16 -50 15 -263
0 -135 0 -261 0 -278 0 -26 6 -36 31 -48 47 -25 36 -54 -31 -87 -67 -33 -89
-34 -124 -7 -57 45 -61 65 -62 299 -3 401 -2 374 -26 402 -13 14 -33 37 -45
51 -13 15 -30 27 -38 27 -33 0 -11 31 53 74 37 25 69 46 70 46 2 0 36 -25 75
-55z m679 23 c18 -15 57 -45 86 -68 45 -35 52 -45 52 -75 0 -39 22 -65 55 -65
13 0 27 -5 30 -11 9 -13 -23 -49 -44 -49 -9 0 -40 -18 -70 -40 -63 -47 -94
-54 -62 -14 12 15 21 33 21 41 0 17 -125 144 -159 163 -15 7 -27 8 -33 2 -7
-7 -7 -197 0 -337 1 -5 -2 -60 -4 -120 l-6 -111 44 -41 c37 -34 54 -41 101
-47 31 -4 57 -11 57 -16 0 -21 -55 -71 -104 -95 l-53 -26 -54 21 c-84 31 -85
33 -71 73 26 72 11 102 -28 55 -26 -30 -28 -31 -58 -19 -30 13 -32 16 -32 66
0 37 6 60 20 78 13 16 20 40 20 67 0 27 -7 51 -20 67 -25 31 -26 94 -4 129 15
23 15 26 0 43 -12 13 -16 38 -16 103 0 95 2 99 80 138 25 13 68 34 95 48 28
14 65 35 84 48 19 13 36 22 37 21 2 -2 18 -15 36 -29z m-2977 13 c6 -11 -41
-51 -61 -51 -25 0 -27 23 -3 41 26 20 54 24 64 10z m417 -38 c29 -15 64 -35
77 -45 13 -10 36 -18 52 -18 36 0 79 -16 79 -30 0 -6 11 -26 25 -44 27 -36 33
-92 14 -128 -9 -17 -8 -23 5 -30 14 -8 16 -37 16 -226 0 -156 -3 -221 -12
-230 -7 -7 -27 -12 -45 -12 -20 0 -53 -13 -85 -33 -29 -19 -85 -51 -125 -72
l-71 -38 -69 40 c-68 41 -147 74 -230 97 -65 18 -68 24 -43 104 15 54 30 80
58 106 l37 35 -35 36 c-34 35 -35 39 -37 121 -2 93 5 104 65 104 16 0 40 9 53
20 l24 19 -57 1 c-31 0 -59 3 -61 8 -3 4 -8 25 -11 47 -9 53 5 69 84 98 36 14
92 41 124 61 71 43 97 45 168 9z m627 -19 c60 -52 83 -103 84 -188 1 -39 -2
-77 -6 -83 -9 -15 -173 -18 -195 -4 -16 10 -19 68 -5 82 6 6 -3 23 -29 48 -21
21 -38 48 -38 59 0 24 105 122 130 122 9 0 35 -16 59 -36z m366 -28 c25 -25
45 -54 45 -65 0 -21 -78 -91 -102 -91 -15 0 -127 83 -140 103 -9 15 -2 24 45
55 84 54 95 54 152 -2z m2172 -103 c-3 -32 -1 -165 6 -296 l12 -239 37 -34
c22 -20 48 -34 63 -34 40 0 42 -27 4 -67 -44 -46 -105 -74 -135 -63 -46 18
-103 62 -106 83 -2 15 -13 24 -41 30 -47 11 -60 33 -46 78 5 19 12 116 16 216
l6 182 39 31 c21 17 38 38 38 46 0 18 88 124 103 124 6 0 7 -22 4 -57z m-4272
-69 c23 -9 -1 -23 -27 -16 -15 4 -17 7 -6 13 16 11 13 10 33 3z m140 -14 c-3
-5 -12 -10 -20 -10 -8 0 -17 5 -20 10 -4 6 5 10 20 10 15 0 24 -4 20 -10z
m2041 -51 c4 -7 20 -9 40 -6 44 7 61 -12 44 -52 -6 -16 -13 -52 -15 -80 -2
-45 0 -51 15 -46 14 5 18 -3 23 -47 5 -42 3 -58 -15 -87 -12 -20 -27 -39 -32
-44 -18 -12 -90 4 -109 24 -12 13 -25 17 -42 13 -20 -5 -32 1 -55 26 -16 18
-30 37 -30 44 0 6 -13 23 -30 38 -16 14 -30 36 -30 47 0 12 -5 30 -12 40 -9
15 -9 25 0 45 10 22 18 26 51 26 22 0 43 5 46 10 3 6 17 7 30 4 17 -4 32 2 56
25 36 32 54 38 65 20z m-383 -71 c17 -9 18 -23 16 -176 -3 -176 4 -212 40
-212 26 0 71 -38 71 -59 0 -29 -73 -101 -102 -101 -14 0 -45 15 -69 34 -25 18
-58 36 -76 40 -35 8 -68 39 -58 55 3 6 23 11 43 12 36 1 36 1 -13 13 l-50 11
-1 187 c0 103 2 191 5 196 3 5 13 12 21 15 20 8 151 -3 173 -15z m1887 12 c0
-5 -9 -10 -21 -10 -11 0 -17 5 -14 10 3 6 13 10 21 10 8 0 14 -4 14 -10z m-50
-24 c0 -3 -4 -8 -10 -11 -5 -3 -10 -1 -10 4 0 6 5 11 10 11 6 0 10 -2 10 -4z
m200 -155 c0 -12 -63 -23 -84 -15 -9 3 -13 10 -10 15 7 12 94 12 94 0z m-3313
-193 c-3 -8 -6 -5 -6 6 -1 11 2 17 5 13 3 -3 4 -12 1 -19z m1463 -68 c0 -5 -8
-10 -17 -10 -15 0 -16 2 -3 10 19 12 20 12 20 0z m160 -60 c0 -5 -2 -10 -4
-10 -3 0 -8 5 -11 10 -3 6 -1 10 4 10 6 0 11 -4 11 -10z m-2980 -127 c29 -105
22 -143 -26 -143 -31 0 -47 33 -41 86 5 44 30 94 47 94 5 0 14 -17 20 -37z
m286 7 c6 -27 9 -28 38 -22 17 3 47 7 66 7 32 0 35 -3 38 -31 2 -24 -6 -42
-37 -80 -23 -27 -41 -52 -41 -56 0 -5 -6 -8 -13 -8 -7 0 -34 -13 -60 -30 -49
-31 -91 -39 -103 -19 -3 6 2 28 11 49 16 35 16 40 1 61 -21 31 -20 52 4 99 33
65 86 82 96 30z m3634 -65 c10 -12 10 -21 2 -40 -14 -31 -27 -32 -47 -1 -28
42 13 79 45 41z m-3263 -31 c-3 -4 -14 -3 -24 0 -15 6 -15 8 -3 16 16 10 39
-4 27 -16z m-716 -198 c22 -49 -12 -104 -46 -76 -18 15 -20 86 -2 93 25 11 38
6 48 -17z"/>
<path d="M2400 1844 c-6 -14 -10 -41 -10 -60 0 -20 -5 -34 -12 -34 -9 0 -9 -3
0 -12 19 -19 16 -222 -3 -238 -14 -11 -14 -15 -1 -29 10 -11 16 -43 18 -96 3
-79 3 -80 33 -88 17 -5 49 -18 72 -29 52 -25 128 -35 147 -19 11 9 14 59 16
249 1 130 2 250 3 267 2 29 0 30 -118 72 -66 23 -123 42 -128 43 -4 0 -12 -12
-17 -26z"/>
<path d="M3686 1459 c-11 -11 -17 -21 -14 -24 2 -3 13 4 23 15 24 26 16 33 -9
9z"/>
<path d="M3280 1220 c0 -5 7 -10 15 -10 8 0 15 5 15 10 0 6 -7 10 -15 10 -8 0
-15 -4 -15 -10z"/>
<path d="M7750 2673 c-14 -2 -39 -20 -57 -39 -18 -19 -41 -34 -51 -34 -11 0
-46 -16 -78 -35 -107 -63 -101 -61 -132 -33 -15 14 -43 28 -62 31 -85 12 -160
31 -225 58 -80 33 -89 35 -77 13 9 -16 33 -32 88 -57 17 -8 41 -27 53 -43 30
-38 12 -46 -64 -28 -33 7 -77 14 -97 14 -20 0 -40 5 -43 10 -3 6 -23 10 -43
10 -33 -1 -35 -2 -19 -14 20 -15 22 -33 5 -38 -7 -3 -14 -24 -16 -49 -1 -24
-4 -64 -6 -88 -2 -30 -9 -48 -21 -55 -10 -6 -30 -21 -45 -33 -14 -12 -38 -25
-53 -28 -28 -7 -35 -19 -18 -30 22 -13 71 -98 74 -127 2 -34 -10 -44 -66 -53
-31 -5 -40 -12 -52 -43 -9 -20 -22 -43 -29 -52 -8 -8 -17 -34 -21 -58 -6 -35
-14 -47 -45 -67 -59 -37 -60 -59 -6 -114 37 -38 46 -53 46 -83 0 -19 7 -41 15
-48 8 -7 15 -23 15 -36 0 -12 5 -26 10 -29 20 -13 9 -32 -32 -55 -24 -13 -58
-36 -76 -52 -42 -36 -63 -35 -84 2 -18 32 -70 60 -110 60 -23 0 -108 -78 -108
-99 0 -17 58 -116 78 -133 21 -19 90 -42 118 -40 20 1 64 -31 64 -47 0 -5 -9
-20 -20 -34 -11 -14 -20 -30 -20 -35 0 -18 20 -24 35 -12 24 20 55 -5 55 -45
0 -29 6 -39 38 -59 20 -13 46 -33 56 -45 11 -11 25 -21 33 -21 38 0 73 -31 84
-76 9 -36 15 -44 28 -38 9 4 31 12 49 18 27 9 32 15 29 34 -5 26 23 31 43 7
18 -21 43 -19 58 6 17 27 44 21 134 -33 65 -39 104 -45 92 -14 -3 8 -23 21
-43 30 -35 13 -51 32 -51 57 0 5 20 9 44 9 36 0 47 5 60 25 32 49 69 20 46
-36 -17 -41 -8 -45 30 -13 28 24 31 32 26 65 -5 28 -2 38 10 43 17 7 28 2 59
-24 11 -9 34 -25 51 -35 31 -17 32 -17 70 9 47 32 137 38 148 10 6 -15 9 -15
24 -2 9 8 48 29 85 48 38 19 77 44 87 57 11 14 29 23 46 23 33 1 52 13 77 53
17 26 22 28 75 25 l57 -3 3 -59 c2 -43 -1 -61 -12 -70 -19 -14 -6 -39 16 -31
8 3 22 24 31 46 20 50 44 51 96 4 l38 -35 56 25 c53 25 58 25 86 11 17 -9 35
-16 41 -16 7 0 24 -9 38 -21 21 -16 35 -19 68 -14 38 5 42 3 82 -40 47 -52 57
-56 48 -19 -7 25 -6 26 33 19 29 -5 47 -2 68 11 15 10 29 19 31 20 2 1 -6 17
-17 35 -12 19 -21 39 -21 45 0 13 86 104 98 104 18 0 32 -26 32 -57 0 -34 21
-53 58 -53 13 0 24 -10 30 -29 7 -21 19 -31 40 -36 41 -8 52 -24 50 -69 -1
-42 6 -51 74 -89 l47 -27 15 22 c9 12 16 37 16 55 0 35 21 53 63 53 35 0 39
10 12 32 -34 26 -31 44 6 52 72 14 109 7 152 -28 27 -22 53 -34 72 -34 17 1
46 -3 66 -7 34 -7 37 -5 57 29 12 20 30 39 39 43 10 3 27 14 39 25 12 10 28
16 37 13 15 -6 47 -71 47 -98 1 -6 14 -27 29 -45 36 -42 47 -22 20 38 -36 81
-18 109 64 97 20 -3 48 3 75 17 l44 21 25 -29 c18 -21 23 -37 19 -56 -4 -21 1
-33 19 -50 31 -30 95 -24 182 14 57 26 65 27 115 17 47 -10 54 -10 65 6 7 9
13 27 13 39 0 30 27 56 54 52 17 -2 22 -11 24 -45 l3 -41 25 23 c13 12 24 28
24 34 0 28 32 70 60 79 16 6 30 16 30 21 0 6 5 11 10 11 6 0 10 -18 10 -39 0
-50 26 -79 100 -116 30 -15 62 -31 70 -35 8 -4 31 -37 50 -73 44 -84 86 -129
100 -107 5 8 10 24 10 36 0 21 58 84 77 84 6 0 13 9 16 20 4 16 11 19 37 14
25 -5 36 -2 58 19 15 15 49 31 77 37 28 6 65 20 84 31 36 21 61 19 61 -5 0 -9
16 -26 36 -40 20 -14 46 -42 58 -63 13 -22 30 -39 43 -41 33 -5 80 24 109 68
33 50 53 51 142 6 49 -25 74 -44 92 -74 24 -39 55 -62 85 -62 24 0 18 10 -45
76 -33 34 -60 66 -60 71 0 13 55 43 80 43 14 0 25 10 35 34 8 18 25 47 38 62
13 16 27 42 31 57 9 36 49 56 78 38 21 -13 98 -6 98 9 0 5 -13 11 -29 15 -46
10 -91 62 -91 104 0 22 -8 43 -22 58 -47 50 -54 123 -11 123 21 0 25 23 8 56
-35 68 -16 77 159 73 88 -3 121 0 124 9 3 9 -21 12 -92 12 -141 0 -202 36
-146 88 20 18 20 18 -15 35 -23 11 -36 25 -40 44 -4 15 -11 48 -18 73 -14 57
-11 97 11 131 72 110 98 143 128 161 33 19 43 41 25 52 -18 12 -41 -7 -120
-99 -91 -105 -166 -162 -188 -144 -23 20 -15 56 17 79 17 12 30 26 30 31 0 19
-70 8 -125 -21 -31 -16 -63 -30 -71 -30 -19 0 -29 29 -15 43 22 22 10 28 -47
26 -65 -2 -82 4 -82 29 0 37 -13 43 -69 31 -36 -7 -66 -22 -91 -45 -33 -30
-41 -33 -65 -24 -38 14 -43 13 -73 -17 -19 -20 -39 -28 -70 -29 -62 -4 -82
-13 -92 -40 -13 -33 -63 -34 -84 -1 -13 19 -13 29 -3 64 7 24 17 47 23 53 6 6
42 15 80 21 75 10 91 20 95 59 4 30 -47 100 -73 100 -33 0 -51 30 -45 77 4 37
0 49 -20 74 -30 36 -39 36 -47 3 -10 -37 -46 -29 -68 16 -24 46 -48 45 -74 -5
-14 -29 -30 -43 -55 -50 -54 -17 -93 -37 -110 -58 -10 -12 -34 -21 -62 -24
-65 -8 -75 -23 -54 -81 10 -26 17 -54 17 -63 0 -8 11 -26 25 -39 33 -31 32
-40 -8 -67 -42 -29 -46 -29 -87 2 -19 14 -45 25 -58 25 -33 0 -62 18 -62 38 0
31 -27 59 -59 60 -16 0 -42 7 -58 16 -27 13 -34 13 -76 -2 -38 -14 -49 -14
-59 -4 -11 11 -8 17 15 34 15 11 27 26 27 34 0 16 -16 19 -25 4 -3 -6 -20 -17
-37 -26 -28 -15 -31 -14 -52 4 -37 34 -45 35 -56 8 -17 -46 -60 -22 -60 33 0
24 28 29 48 9 26 -26 11 19 -20 60 -30 39 -33 40 -57 28 -36 -19 -106 7 -122
46 -14 34 -33 51 -55 46 -13 -2 -9 -11 20 -42 20 -22 36 -43 36 -47 0 -12 -90
-30 -108 -21 -9 5 -24 7 -32 4 -29 -9 -80 -66 -80 -88 0 -13 -4 -26 -10 -29
-16 -10 -12 -23 11 -30 16 -5 19 -12 15 -31 -5 -19 -2 -26 15 -33 13 -4 18
-10 12 -14 -9 -6 -38 2 -112 28 -11 4 -12 8 -3 17 7 7 12 16 12 20 0 13 -20 9
-37 -8 -19 -19 -66 -13 -90 12 -9 8 -27 20 -40 25 -29 11 -83 12 -83 2 0 -9
60 -38 100 -49 46 -13 125 -61 128 -77 8 -42 -131 -45 -175 -5 -17 16 -25 18
-43 8 -11 -6 -34 -9 -49 -5 -21 4 -30 2 -34 -9 -4 -9 -5 -16 -4 -16 15 -1 77
-29 65 -30 -10 0 -22 -8 -27 -18 -9 -18 -108 -48 -119 -37 -3 3 4 15 16 28 14
15 22 36 22 59 0 31 -4 36 -27 41 -34 6 -60 -6 -68 -33 -5 -16 -15 -20 -53
-20 -65 0 -92 21 -92 69 0 33 -4 40 -30 51 -26 11 -37 10 -70 -5 -22 -10 -45
-24 -51 -32 -6 -7 -20 -13 -31 -13 -16 0 -17 -3 -8 -20 15 -28 9 -75 -10 -75
-11 0 -15 11 -14 43 1 44 -12 59 -18 20 -4 -28 -51 -47 -75 -32 -9 5 -22 31
-30 57 -7 25 -18 49 -23 52 -6 3 -10 14 -10 24 0 26 -25 44 -79 58 -47 12
-107 8 -117 -8 -3 -5 -14 -9 -25 -9 -16 0 -19 7 -19 44 0 29 -7 52 -21 70 -19
24 -27 26 -93 26 -43 0 -77 -5 -84 -12 -7 -7 -12 -36 -12 -66 0 -46 4 -58 29
-83 33 -33 49 -37 47 -11 -2 24 65 30 84 7 17 -21 4 -33 -40 -37 -30 -2 -35
-7 -36 -28 -1 -52 -5 -60 -29 -66 -35 -9 -65 -50 -65 -91 0 -38 -13 -46 -97
-58 -47 -6 -52 -5 -64 17 -6 13 -23 36 -35 51 -19 22 -24 40 -24 83 0 39 -4
56 -15 60 -10 4 -15 21 -15 54 0 31 -5 52 -16 61 -9 7 -20 23 -24 35 -6 14
-26 28 -59 39 -27 9 -55 22 -61 30 -16 19 -5 65 26 110 37 55 29 73 -17 36
-21 -17 -26 -17 -46 -4 -26 17 -45 10 -36 -14 7 -19 -22 -44 -43 -36 -9 3 -19
-7 -29 -31 -8 -20 -18 -36 -22 -36 -4 0 -24 18 -44 40 -45 48 -67 50 -102 10
-28 -31 -61 -32 -55 -1 4 19 63 50 96 51 16 0 27 11 39 35 22 45 52 53 96 26
19 -12 37 -21 41 -21 3 0 6 18 6 40 0 37 -21 63 -47 59 -4 -1 -19 -4 -33 -6z
m-737 -175 c6 -23 1 -38 -13 -38 -12 0 -20 28 -14 45 9 22 21 18 27 -7z m393
-119 c54 -19 251 -73 316 -86 22 -4 33 1 55 26 15 17 33 31 40 31 20 0 15 -28
-7 -40 -10 -6 -24 -28 -30 -50 -6 -21 -26 -55 -44 -75 -19 -19 -39 -49 -46
-65 -7 -17 -15 -30 -19 -30 -4 0 -23 14 -43 30 -20 17 -53 37 -74 46 -20 8
-54 26 -75 40 -27 17 -53 24 -87 24 -27 0 -63 5 -81 11 -25 9 -43 7 -92 -7
-68 -20 -93 -45 -110 -106 -14 -52 1 -94 49 -141 l37 -36 165 8 c168 8 193 14
239 55 17 15 25 17 28 8 9 -23 57 -39 123 -40 93 -1 203 -26 278 -64 152 -77
152 -77 159 -110 4 -19 16 -37 34 -47 16 -9 34 -28 40 -42 15 -38 -6 -107 -43
-140 -27 -24 -30 -35 -37 -110 -9 -98 -15 -111 -79 -178 -45 -46 -117 -89
-129 -77 -7 6 39 86 81 141 38 49 60 100 79 184 14 62 14 65 -10 107 -24 42
-132 137 -176 153 -12 5 -44 12 -72 16 -27 4 -58 11 -68 17 -12 6 -23 6 -31
-1 -7 -6 -66 -12 -131 -13 l-119 -3 -34 -48 c-26 -37 -32 -51 -23 -60 7 -7 62
-12 159 -13 223 -2 291 -20 337 -94 55 -88 19 -157 -125 -238 -31 -17 -66 -41
-79 -53 l-24 -23 27 -22 c27 -24 112 -54 152 -54 32 0 39 -18 17 -42 -28 -31
-168 -98 -206 -98 -32 0 -67 9 -202 50 -38 12 -88 23 -110 24 -29 3 -43 9 -50
24 -6 14 -26 25 -60 33 -27 6 -95 25 -150 41 -93 28 -107 29 -210 24 -101 -6
-112 -9 -132 -32 -25 -27 -29 -67 -13 -110 17 -44 -4 -54 -40 -19 -47 45 -57
93 -36 162 10 31 29 66 43 79 54 50 297 90 394 64 l44 -12 32 39 c36 42 42 68
17 77 -9 3 -48 6 -87 7 -103 0 -189 27 -275 83 -92 60 -115 94 -108 158 7 68
25 96 92 143 55 38 61 46 86 119 16 43 42 97 60 120 47 61 156 164 214 201 29
18 55 38 58 44 11 17 46 13 112 -10z m3779 -79 c8 -13 -90 -117 -118 -126 -14
-4 -25 -1 -34 12 -17 23 -16 46 1 89 15 35 15 35 80 35 36 0 68 -4 71 -10z
m-1090 -86 c39 -26 135 -79 213 -119 79 -40 153 -82 165 -93 12 -12 57 -37
100 -58 72 -34 79 -35 96 -20 43 39 70 -2 48 -72 -8 -26 -18 -91 -22 -145 -5
-83 -4 -102 10 -117 23 -25 23 -210 0 -222 -20 -12 -20 -72 2 -104 15 -23 15
-27 0 -41 -8 -9 -46 -28 -84 -43 -37 -15 -104 -48 -148 -73 l-79 -46 -31 19
c-16 11 -46 27 -65 35 -19 9 -60 27 -90 40 -30 14 -81 32 -113 41 -32 9 -61
22 -64 30 -3 8 3 33 12 57 14 33 18 74 20 197 3 386 2 369 33 381 56 23 133
62 138 71 3 5 -1 17 -9 26 -8 9 -17 26 -19 37 -2 16 -16 23 -61 31 -57 12 -93
29 -134 67 -20 17 -23 31 -23 88 0 62 5 75 30 78 3 1 37 -20 75 -45z m-2055
-20 c0 -8 -6 -23 -12 -34 -11 -17 -10 -22 0 -29 9 -6 5 -8 -15 -9 -15 0 -42
-3 -58 -7 -23 -5 -37 -1 -55 13 -24 20 -24 21 -5 27 49 16 101 40 114 51 17
15 31 9 31 -12z m614 -51 c3 -21 6 -61 6 -89 0 -55 13 -75 53 -79 12 -1 28 -3
35 -4 24 -2 11 -29 -33 -70 -55 -50 -65 -90 -58 -216 5 -75 4 -85 -15 -101
-19 -16 -19 -19 -5 -29 13 -10 12 -13 -11 -28 -29 -20 -26 -39 10 -55 22 -11
24 -17 24 -74 0 -35 5 -80 10 -100 13 -45 74 -97 125 -105 41 -7 45 -25 9 -50
-14 -10 -43 -33 -65 -51 -23 -17 -51 -32 -63 -32 -12 0 -68 29 -126 65 -58 36
-108 65 -112 65 -13 0 -9 33 7 50 21 24 35 108 35 217 0 57 5 107 14 126 11
28 11 36 0 52 -10 13 -14 51 -14 125 0 102 1 109 30 151 29 43 40 89 21 89 -6
0 -20 -18 -33 -41 -12 -23 -35 -47 -50 -55 -27 -14 -28 -14 -28 10 0 21 69
114 100 136 4 3 22 27 39 55 27 43 61 73 82 75 4 0 9 -17 13 -37z m2439 -179
c49 -38 58 -60 31 -71 -13 -5 -12 -9 6 -28 19 -20 21 -31 16 -82 -3 -32 -5
-64 -5 -70 1 -12 0 -73 0 -110 0 -10 2 -94 4 -188 l4 -170 31 -27 c16 -15 30
-32 30 -37 0 -16 -41 -61 -57 -61 -8 0 -31 -13 -50 -30 -18 -16 -38 -30 -43
-30 -18 0 -81 64 -101 101 -28 56 -25 107 9 149 23 28 30 49 35 102 6 70 1 82
-38 90 -15 2 -20 11 -20 33 0 23 5 30 25 35 36 8 37 35 2 49 -34 14 -42 43
-42 153 0 58 3 69 22 82 l22 16 -21 0 c-66 0 -68 26 -5 78 76 63 84 64 145 16z
m326 22 c16 -19 -8 -36 -59 -43 -32 -5 -40 -3 -40 10 0 36 75 62 99 33z
m-2218 -28 c83 -33 86 -37 70 -105 -16 -70 -15 -487 0 -547 12 -46 68 -106 97
-106 27 0 99 56 138 107 l32 42 -3 238 c-1 158 -6 246 -13 260 -21 39 -14 61
34 98 47 35 87 45 100 24 3 -6 25 -19 48 -28 59 -26 71 -43 52 -73 -13 -19
-16 -74 -18 -322 l-3 -298 27 -23 c15 -12 32 -25 39 -27 36 -12 -27 -82 -128
-141 -21 -13 -97 61 -120 116 -17 41 -27 53 -47 55 -31 4 -79 -20 -135 -69
-24 -22 -62 -44 -85 -50 -125 -32 -111 -33 -152 7 -63 63 -63 65 -64 442 0
332 0 341 20 352 11 6 20 19 20 28 0 18 18 42 31 42 3 0 31 -10 60 -22z m2632
-11 c32 -13 65 -34 72 -45 11 -15 29 -21 75 -24 91 -7 94 -12 100 -181 3 -78
3 -220 2 -315 l-4 -173 -26 -11 c-61 -24 -200 -95 -245 -125 -47 -32 -50 -32
-79 -17 -17 9 -49 29 -71 45 -22 16 -48 29 -58 29 -24 0 -81 26 -143 64 l-48
31 7 80 c3 44 11 96 17 117 8 26 7 45 0 67 -8 23 -8 38 0 56 8 19 8 35 0 62
-9 28 -8 42 3 64 8 15 20 29 27 31 9 3 4 15 -15 37 -15 18 -27 40 -27 50 0 27
50 68 115 95 33 14 89 41 125 61 73 40 85 40 173 2z m-523 -222 c0 -8 -7 -15
-15 -15 -8 0 -15 7 -15 15 0 8 7 15 15 15 8 0 15 -7 15 -15z m-2396 -100 c8
-21 -3 -44 -26 -56 -19 -10 -19 -8 -13 23 11 51 27 64 39 33z m-2344 -363 c0
-27 -29 -62 -50 -62 -29 0 -39 49 -15 67 28 19 65 17 65 -5z m498 -219 c-10
-2 -26 -2 -35 0 -10 3 -2 5 17 5 19 0 27 -2 18 -5z m-140 -157 c5 -25 -12 -39
-36 -32 -22 7 -36 32 -26 47 10 17 59 6 62 -15z"/>
<path d="M6924 1889 c-18 -37 -13 -66 23 -128 39 -68 86 -84 261 -89 l143 -5
45 48 c24 27 43 53 41 59 -2 7 -50 14 -118 17 -159 9 -196 17 -232 48 -51 44
-110 81 -129 81 -10 0 -25 -14 -34 -31z"/>
<path d="M7370 1523 c-46 -17 -95 -102 -71 -126 6 -6 32 -14 58 -18 27 -4 101
-22 167 -40 136 -36 131 -37 221 46 53 49 57 56 51 86 -12 59 -11 59 -220 58
-105 0 -198 -3 -206 -6z"/>
<path d="M10305 1883 l-50 -15 2 -201 c2 -111 6 -239 9 -285 l6 -83 38 -19
c21 -11 70 -28 108 -39 62 -17 72 -18 83 -5 8 10 13 78 15 222 2 114 4 214 4
222 1 8 -2 29 -5 45 -3 17 -8 40 -11 52 -4 21 -123 124 -140 122 -5 -1 -31 -8
-59 -16z"/>
<path d="M11058 1683 c6 -2 18 -2 25 0 6 3 1 5 -13 5 -14 0 -19 -2 -12 -5z"/>
<path d="M11626 1824 c-3 -9 -6 -139 -6 -289 l0 -274 48 -7 c26 -3 55 -11 65
-16 39 -20 130 -39 140 -29 6 6 11 107 13 246 1 130 5 249 9 264 8 38 -13 53
-133 91 -105 34 -127 36 -136 14z"/>
<path d="M11490 1686 c0 -2 7 -9 15 -16 12 -10 15 -10 15 4 0 9 -7 16 -15 16
-8 0 -15 -2 -15 -4z"/>
<path d="M11120 2591 c0 -12 28 -41 41 -41 5 0 9 -6 9 -12 0 -13 50 -41 58
-33 2 2 -9 23 -25 47 -20 30 -37 44 -56 46 -15 2 -27 -1 -27 -7z"/>
<path d="M5315 2440 c3 -5 13 -10 21 -10 8 0 14 5 14 10 0 6 -9 10 -21 10 -11
0 -17 -4 -14 -10z"/>
<path d="M8216 2421 c-4 -5 0 -11 6 -14 19 -6 49 4 42 14 -7 12 -41 12 -48 0z"/>
<path d="M4991 2344 c0 -11 3 -14 6 -6 3 7 2 16 -1 19 -3 4 -6 -2 -5 -13z"/>
<path d="M10728 2353 c6 -2 18 -2 25 0 6 3 1 5 -13 5 -14 0 -19 -2 -12 -5z"/>
<path d="M1898 2339 c-10 -6 -18 -14 -18 -19 0 -13 21 -12 40 0 22 14 0 32
-22 19z"/>
<path d="M10686 2283 c-11 -11 -6 -23 9 -23 8 0 15 4 15 9 0 13 -16 22 -24 14z"/>
<path d="M4890 2236 c0 -14 35 -36 57 -36 25 0 26 0 8 20 -15 17 -65 29 -65
16z"/>
<path d="M11506 2221 c-8 -13 4 -42 15 -35 12 7 12 44 0 44 -6 0 -12 -4 -15
-9z"/>
<path d="M2810 2211 c0 -6 5 -13 10 -16 6 -3 10 1 10 9 0 9 -4 16 -10 16 -5 0
-10 -4 -10 -9z"/>
<path d="M3520 2174 c0 -8 5 -12 10 -9 6 4 8 11 5 16 -9 14 -15 11 -15 -7z"/>
<path d="M12025 2180 c3 -5 15 -10 26 -10 10 0 19 5 19 10 0 6 -12 10 -26 10
-14 0 -23 -4 -19 -10z"/>
<path d="M2700 2150 c0 -5 4 -10 9 -10 6 0 13 5 16 10 3 6 -1 10 -9 10 -9 0
-16 -4 -16 -10z"/>
<path d="M6738 2148 c9 -9 15 -9 24 0 9 9 7 12 -12 12 -19 0 -21 -3 -12 -12z"/>
<path d="M11928 2123 c7 -3 16 -2 19 1 4 3 -2 6 -13 5 -11 0 -14 -3 -6 -6z"/>
<path d="M12365 1770 c8 -13 65 -13 85 0 11 7 0 10 -38 10 -33 0 -51 -4 -47
-10z"/>
<path d="M12500 1189 c0 -5 5 -7 10 -4 6 3 10 8 10 11 0 2 -4 4 -10 4 -5 0
-10 -5 -10 -11z"/>
<path d="M5507 964 c-8 -8 1 -24 14 -24 5 0 9 7 9 15 0 15 -12 20 -23 9z"/>
<path d="M10615 931 c-8 -17 -15 -47 -15 -67 l0 -37 25 47 c14 26 25 53 25 61
0 27 -19 25 -35 -4z"/>
<path d="M8405 930 c-3 -5 3 -10 14 -10 12 0 21 5 21 10 0 6 -6 10 -14 10 -8
0 -18 -4 -21 -10z"/>
<path d="M11268 833 c7 -3 16 -2 19 1 4 3 -2 6 -13 5 -11 0 -14 -3 -6 -6z"/>
<path d="M10553 793 c-17 -6 -17 -43 0 -43 17 0 37 20 37 37 0 13 -15 16 -37
6z"/>
<path d="M4540 670 c-12 -7 -12 -12 -2 -22 9 -9 15 -9 24 0 16 16 -2 34 -22
22z"/>
</g>
</svg>
